<?xml version="1.0" encoding="iso-8859-1"?>
<!-- Generator: Adobe Illustrator 16.0.0, SVG Export Plug-In . SVG Version: 6.00 Build 0)  -->
<!DOCTYPE svg PUBLIC "-//W3C//DTD SVG 1.1//EN" "http://www.w3.org/Graphics/SVG/1.1/DTD/svg11.dtd">
<svg version="1.1" id="Capa_1" xmlns="http://www.w3.org/2000/svg" xmlns:xlink="http://www.w3.org/1999/xlink" x="0px" y="0px"
	 width="31.979px" height="31.979px" viewBox="0 0 31.979 31.979" style="enable-background:new 0 0 31.979 31.979;"
	 xml:space="preserve">
<g>
	<circle cx="10.086" cy="4.501" r="4.501"/>
	<polygon points="13.908,29.923 13.908,21.909 13.908,21.154 13.908,20.128 14.194,20.128 14.611,11.994 14.846,12.073 14.846,9.71 
		14.257,9.68 11.724,9.68 10.008,11.67 8.348,9.68 4.707,10.172 4.467,18.448 6.014,18.448 6.096,20.128 6.333,20.128 6.333,21.154 
		6.333,21.909 6.333,29.923 6.022,29.923 4.215,30.312 4.215,31.979 5.753,31.979 7.549,31.686 7.565,31.979 9.553,31.979 
		9.553,30.123 9.553,29.923 9.553,21.909 10.687,21.909 10.687,29.923 10.687,30.123 10.687,31.979 12.675,31.979 12.691,31.686 
		14.486,31.979 16.024,31.979 16.024,30.312 14.218,29.923 	"/>
	<path d="M26.513,24.146H14.346V7.814h12.167V24.146z M15.346,23.146h10.167V8.814H15.346V23.146z"/>
	<rect x="24.721" y="11.48" width="3.042" height="3.375"/>
	<rect x="16.245" y="15.938" width="2.18" height="5.287"/>
	<rect x="18.938" y="14.486" width="2.178" height="6.739"/>
	<rect x="21.593" y="11.48" width="2.179" height="9.745"/>
	<path d="M21.743,6.896c0-0.574-0.485-1.041-1.084-1.041c-0.598,0-1.082,0.467-1.082,1.041h-1.813v2.626h5.792V6.896H21.743z
		 M20.659,7.392c-0.24,0-0.438-0.195-0.438-0.438s0.196-0.438,0.438-0.438c0.242,0,0.438,0.195,0.438,0.438
		S20.901,7.392,20.659,7.392z"/>
</g>
<g>
</g>
<g>
</g>
<g>
</g>
<g>
</g>
<g>
</g>
<g>
</g>
<g>
</g>
<g>
</g>
<g>
</g>
<g>
</g>
<g>
</g>
<g>
</g>
<g>
</g>
<g>
</g>
<g>
</g>
</svg>
